bend_the_leg_backward coordinate motion generated from LLM joint_angles
version=1
nRows=36
nColumns=36
inDegrees=yes
endheader
time	pelvis_tilt	pelvis_list	pelvis_rotation	pelvis_tx	pelvis_ty	pelvis_tz	hip_flexion_r	hip_adduction_r	hip_rotation_r	knee_angle_r	knee_angle_r_beta	ankle_angle_r	subtalar_angle_r	mtp_angle_r	hip_flexion_l	hip_adduction_l	hip_rotation_l	knee_angle_l	knee_angle_l_beta	ankle_angle_l	subtalar_angle_l	mtp_angle_l	lumbar_extension	lumbar_bending	lumbar_rotation	arm_flex_r	arm_add_r	arm_rot_r	elbow_flex_r	pro_sup_r	arm_flex_l	arm_add_l	arm_rot_l	elbow_flex_l	pro_sup_l
0.753333	0.000000	0.000000	0.000000	0.000000	0.000000	0.000000	-13.993267	0.000000	0.000000	62.969701	0.000000	-6.996633	0.000000	0.000000	-13.993267	0.000000	0.000000	62.969701	0.000000	-6.996633	0.000000	0.000000	0.000000	0.000000	0.000000	0.000000	0.000000	0.000000	0.000000	0.000000	0.000000	0.000000	0.000000	0.000000	0.000000
0.760000	0.000000	0.000000	0.000000	0.000000	0.000000	0.000000	-13.690942	0.000000	0.000000	61.609240	0.000000	-6.845471	0.000000	0.000000	-13.690942	0.000000	0.000000	61.609240	0.000000	-6.845471	0.000000	0.000000	0.000000	0.000000	0.000000	0.000000	0.000000	0.000000	0.000000	0.000000	0.000000	0.000000	0.000000	0.000000	0.000000
0.766667	0.000000	0.000000	0.000000	0.000000	0.000000	0.000000	-13.382612	0.000000	0.000000	60.221755	0.000000	-6.691306	0.000000	0.000000	-13.382612	0.000000	0.000000	60.221755	0.000000	-6.691306	0.000000	0.000000	0.000000	0.000000	0.000000	0.000000	0.000000	0.000000	0.000000	0.000000	0.000000	0.000000	0.000000	0.000000	0.000000
0.773333	0.000000	0.000000	0.000000	0.000000	0.000000	0.000000	-13.068412	0.000000	0.000000	58.807854	0.000000	-6.534206	0.000000	0.000000	-13.068412	0.000000	0.000000	58.807854	0.000000	-6.534206	0.000000	0.000000	0.000000	0.000000	0.000000	0.000000	0.000000	0.000000	0.000000	0.000000	0.000000	0.000000	0.000000	0.000000	0.000000
0.780000	0.000000	0.000000	0.000000	0.000000	0.000000	0.000000	-12.748480	0.000000	0.000000	57.368159	0.000000	-6.374240	0.000000	0.000000	-12.748480	0.000000	0.000000	57.368159	0.000000	-6.374240	0.000000	0.000000	0.000000	0.000000	0.000000	0.000000	0.000000	0.000000	0.000000	0.000000	0.000000	0.000000	0.000000	0.000000	0.000000
0.786667	0.000000	0.000000	0.000000	0.000000	0.000000	0.000000	-12.422956	0.000000	0.000000	55.903300	0.000000	-6.211478	0.000000	0.000000	-12.422956	0.000000	0.000000	55.903300	0.000000	-6.211478	0.000000	0.000000	0.000000	0.000000	0.000000	0.000000	0.000000	0.000000	0.000000	0.000000	0.000000	0.000000	0.000000	0.000000	0.000000
0.793333	0.000000	0.000000	0.000000	0.000000	0.000000	0.000000	-12.091982	0.000000	0.000000	54.413920	0.000000	-6.045991	0.000000	0.000000	-12.091982	0.000000	0.000000	54.413920	0.000000	-6.045991	0.000000	0.000000	0.000000	0.000000	0.000000	0.000000	0.000000	0.000000	0.000000	0.000000	0.000000	0.000000	0.000000	0.000000	0.000000
0.800000	0.000000	0.000000	0.000000	0.000000	0.000000	0.000000	-11.755705	0.000000	0.000000	52.900673	0.000000	-5.877853	0.000000	0.000000	-11.755705	0.000000	0.000000	52.900673	0.000000	-5.877853	0.000000	0.000000	0.000000	0.000000	0.000000	0.000000	0.000000	0.000000	0.000000	0.000000	0.000000	0.000000	0.000000	0.000000	0.000000
0.806667	0.000000	0.000000	0.000000	0.000000	0.000000	0.000000	-11.414271	0.000000	0.000000	51.364221	0.000000	-5.707136	0.000000	0.000000	-11.414271	0.000000	0.000000	51.364221	0.000000	-5.707136	0.000000	0.000000	0.000000	0.000000	0.000000	0.000000	0.000000	0.000000	0.000000	0.000000	0.000000	0.000000	0.000000	0.000000	0.000000
0.813333	0.000000	0.000000	0.000000	0.000000	0.000000	0.000000	-11.067831	0.000000	0.000000	49.805239	0.000000	-5.533915	0.000000	0.000000	-11.067831	0.000000	0.000000	49.805239	0.000000	-5.533915	0.000000	0.000000	0.000000	0.000000	0.000000	0.000000	0.000000	0.000000	0.000000	0.000000	0.000000	0.000000	0.000000	0.000000	0.000000
0.820000	0.000000	0.000000	0.000000	0.000000	0.000000	0.000000	-10.716536	0.000000	0.000000	48.224412	0.000000	-5.358268	0.000000	0.000000	-10.716536	0.000000	0.000000	48.224412	0.000000	-5.358268	0.000000	0.000000	0.000000	0.000000	0.000000	0.000000	0.000000	0.000000	0.000000	0.000000	0.000000	0.000000	0.000000	0.000000	0.000000
0.826667	0.000000	0.000000	0.000000	0.000000	0.000000	0.000000	-10.360540	0.000000	0.000000	46.622431	0.000000	-5.180270	0.000000	0.000000	-10.360540	0.000000	0.000000	46.622431	0.000000	-5.180270	0.000000	0.000000	0.000000	0.000000	0.000000	0.000000	0.000000	0.000000	0.000000	0.000000	0.000000	0.000000	0.000000	0.000000	0.000000
0.833333	0.000000	0.000000	0.000000	0.000000	0.000000	0.000000	-10.000000	0.000000	0.000000	45.000000	0.000000	-5.000000	0.000000	0.000000	-10.000000	0.000000	0.000000	45.000000	0.000000	-5.000000	0.000000	0.000000	0.000000	0.000000	0.000000	0.000000	0.000000	0.000000	0.000000	0.000000	0.000000	0.000000	0.000000	0.000000	0.000000
0.840000	0.000000	0.000000	0.000000	0.000000	0.000000	0.000000	-9.635073	0.000000	0.000000	43.357831	0.000000	-4.817537	0.000000	0.000000	-9.635073	0.000000	0.000000	43.357831	0.000000	-4.817537	0.000000	0.000000	0.000000	0.000000	0.000000	0.000000	0.000000	0.000000	0.000000	0.000000	0.000000	0.000000	0.000000	0.000000	0.000000
0.846667	0.000000	0.000000	0.000000	0.000000	0.000000	0.000000	-9.265921	0.000000	0.000000	41.696643	0.000000	-4.632960	0.000000	0.000000	-9.265921	0.000000	0.000000	41.696643	0.000000	-4.632960	0.000000	0.000000	0.000000	0.000000	0.000000	0.000000	0.000000	0.000000	0.000000	0.000000	0.000000	0.000000	0.000000	0.000000	0.000000
0.853333	0.000000	0.000000	0.000000	0.000000	0.000000	0.000000	-8.892704	0.000000	0.000000	40.017166	0.000000	-4.446352	0.000000	0.000000	-8.892704	0.000000	0.000000	40.017166	0.000000	-4.446352	0.000000	0.000000	0.000000	0.000000	0.000000	0.000000	0.000000	0.000000	0.000000	0.000000	0.000000	0.000000	0.000000	0.000000	0.000000
0.860000	0.000000	0.000000	0.000000	0.000000	0.000000	0.000000	-8.515586	0.000000	0.000000	38.320136	0.000000	-4.257793	0.000000	0.000000	-8.515586	0.000000	0.000000	38.320136	0.000000	-4.257793	0.000000	0.000000	0.000000	0.000000	0.000000	0.000000	0.000000	0.000000	0.000000	0.000000	0.000000	0.000000	0.000000	0.000000	0.000000
0.866667	0.000000	0.000000	0.000000	0.000000	0.000000	0.000000	-8.134733	0.000000	0.000000	36.606298	0.000000	-4.067366	0.000000	0.000000	-8.134733	0.000000	0.000000	36.606298	0.000000	-4.067366	0.000000	0.000000	0.000000	0.000000	0.000000	0.000000	0.000000	0.000000	0.000000	0.000000	0.000000	0.000000	0.000000	0.000000	0.000000
0.873333	0.000000	0.000000	0.000000	0.000000	0.000000	0.000000	-7.750312	0.000000	0.000000	34.876403	0.000000	-3.875156	0.000000	0.000000	-7.750312	0.000000	0.000000	34.876403	0.000000	-3.875156	0.000000	0.000000	0.000000	0.000000	0.000000	0.000000	0.000000	0.000000	0.000000	0.000000	0.000000	0.000000	0.000000	0.000000	0.000000
0.880000	0.000000	0.000000	0.000000	0.000000	0.000000	0.000000	-7.362491	0.000000	0.000000	33.131210	0.000000	-3.681246	0.000000	0.000000	-7.362491	0.000000	0.000000	33.131210	0.000000	-3.681246	0.000000	0.000000	0.000000	0.000000	0.000000	0.000000	0.000000	0.000000	0.000000	0.000000	0.000000	0.000000	0.000000	0.000000	0.000000
0.886667	0.000000	0.000000	0.000000	0.000000	0.000000	0.000000	-6.971441	0.000000	0.000000	31.371484	0.000000	-3.485720	0.000000	0.000000	-6.971441	0.000000	0.000000	31.371484	0.000000	-3.485720	0.000000	0.000000	0.000000	0.000000	0.000000	0.000000	0.000000	0.000000	0.000000	0.000000	0.000000	0.000000	0.000000	0.000000	0.000000
0.893333	0.000000	0.000000	0.000000	0.000000	0.000000	0.000000	-6.577333	0.000000	0.000000	29.597998	0.000000	-3.288666	0.000000	0.000000	-6.577333	0.000000	0.000000	29.597998	0.000000	-3.288666	0.000000	0.000000	0.000000	0.000000	0.000000	0.000000	0.000000	0.000000	0.000000	0.000000	0.000000	0.000000	0.000000	0.000000	0.000000
0.900000	0.000000	0.000000	0.000000	0.000000	0.000000	0.000000	-6.180340	0.000000	0.000000	27.811529	0.000000	-3.090170	0.000000	0.000000	-6.180340	0.000000	0.000000	27.811529	0.000000	-3.090170	0.000000	0.000000	0.000000	0.000000	0.000000	0.000000	0.000000	0.000000	0.000000	0.000000	0.000000	0.000000	0.000000	0.000000	0.000000
0.906667	0.000000	0.000000	0.000000	0.000000	0.000000	0.000000	-5.780636	0.000000	0.000000	26.012862	0.000000	-2.890318	0.000000	0.000000	-5.780636	0.000000	0.000000	26.012862	0.000000	-2.890318	0.000000	0.000000	0.000000	0.000000	0.000000	0.000000	0.000000	0.000000	0.000000	0.000000	0.000000	0.000000	0.000000	0.000000	0.000000
0.913333	0.000000	0.000000	0.000000	0.000000	0.000000	0.000000	-5.378396	0.000000	0.000000	24.202784	0.000000	-2.689198	0.000000	0.000000	-5.378396	0.000000	0.000000	24.202784	0.000000	-2.689198	0.000000	0.000000	0.000000	0.000000	0.000000	0.000000	0.000000	0.000000	0.000000	0.000000	0.000000	0.000000	0.000000	0.000000	0.000000
0.920000	0.000000	0.000000	0.000000	0.000000	0.000000	0.000000	-4.973798	0.000000	0.000000	22.382090	0.000000	-2.486899	0.000000	0.000000	-4.973798	0.000000	0.000000	22.382090	0.000000	-2.486899	0.000000	0.000000	0.000000	0.000000	0.000000	0.000000	0.000000	0.000000	0.000000	0.000000	0.000000	0.000000	0.000000	0.000000	0.000000
0.926667	0.000000	0.000000	0.000000	0.000000	0.000000	0.000000	-4.567017	0.000000	0.000000	20.551578	0.000000	-2.283509	0.000000	0.000000	-4.567017	0.000000	0.000000	20.551578	0.000000	-2.283509	0.000000	0.000000	0.000000	0.000000	0.000000	0.000000	0.000000	0.000000	0.000000	0.000000	0.000000	0.000000	0.000000	0.000000	0.000000
0.933333	0.000000	0.000000	0.000000	0.000000	0.000000	0.000000	-4.158234	0.000000	0.000000	18.712052	0.000000	-2.079117	0.000000	0.000000	-4.158234	0.000000	0.000000	18.712052	0.000000	-2.079117	0.000000	0.000000	0.000000	0.000000	0.000000	0.000000	0.000000	0.000000	0.000000	0.000000	0.000000	0.000000	0.000000	0.000000	0.000000
0.940000	0.000000	0.000000	0.000000	0.000000	0.000000	0.000000	-3.747626	0.000000	0.000000	16.864318	0.000000	-1.873813	0.000000	0.000000	-3.747626	0.000000	0.000000	16.864318	0.000000	-1.873813	0.000000	0.000000	0.000000	0.000000	0.000000	0.000000	0.000000	0.000000	0.000000	0.000000	0.000000	0.000000	0.000000	0.000000	0.000000
0.946667	0.000000	0.000000	0.000000	0.000000	0.000000	0.000000	-3.335375	0.000000	0.000000	15.009187	0.000000	-1.667687	0.000000	0.000000	-3.335375	0.000000	0.000000	15.009187	0.000000	-1.667687	0.000000	0.000000	0.000000	0.000000	0.000000	0.000000	0.000000	0.000000	0.000000	0.000000	0.000000	0.000000	0.000000	0.000000	0.000000
0.953333	0.000000	0.000000	0.000000	0.000000	0.000000	0.000000	-2.921661	0.000000	0.000000	13.147473	0.000000	-1.460830	0.000000	0.000000	-2.921661	0.000000	0.000000	13.147473	0.000000	-1.460830	0.000000	0.000000	0.000000	0.000000	0.000000	0.000000	0.000000	0.000000	0.000000	0.000000	0.000000	0.000000	0.000000	0.000000	0.000000
0.960000	0.000000	0.000000	0.000000	0.000000	0.000000	0.000000	-2.506665	0.000000	0.000000	11.279991	0.000000	-1.253332	0.000000	0.000000	-2.506665	0.000000	0.000000	11.279991	0.000000	-1.253332	0.000000	0.000000	0.000000	0.000000	0.000000	0.000000	0.000000	0.000000	0.000000	0.000000	0.000000	0.000000	0.000000	0.000000	0.000000
0.966667	0.000000	0.000000	0.000000	0.000000	0.000000	0.000000	-2.090569	0.000000	0.000000	9.407562	0.000000	-1.045285	0.000000	0.000000	-2.090569	0.000000	0.000000	9.407562	0.000000	-1.045285	0.000000	0.000000	0.000000	0.000000	0.000000	0.000000	0.000000	0.000000	0.000000	0.000000	0.000000	0.000000	0.000000	0.000000	0.000000
0.973333	0.000000	0.000000	0.000000	0.000000	0.000000	0.000000	-1.673557	0.000000	0.000000	7.531006	0.000000	-0.836778	0.000000	0.000000	-1.673557	0.000000	0.000000	7.531006	0.000000	-0.836778	0.000000	0.000000	0.000000	0.000000	0.000000	0.000000	0.000000	0.000000	0.000000	0.000000	0.000000	0.000000	0.000000	0.000000	0.000000
0.980000	0.000000	0.000000	0.000000	0.000000	0.000000	0.000000	-1.255810	0.000000	0.000000	5.651147	0.000000	-0.627905	0.000000	0.000000	-1.255810	0.000000	0.000000	5.651147	0.000000	-0.627905	0.000000	0.000000	0.000000	0.000000	0.000000	0.000000	0.000000	0.000000	0.000000	0.000000	0.000000	0.000000	0.000000	0.000000	0.000000
0.986667	0.000000	0.000000	0.000000	0.000000	0.000000	0.000000	-0.837513	0.000000	0.000000	3.768809	0.000000	-0.418757	0.000000	0.000000	-0.837513	0.000000	0.000000	3.768809	0.000000	-0.418757	0.000000	0.000000	0.000000	0.000000	0.000000	0.000000	0.000000	0.000000	0.000000	0.000000	0.000000	0.000000	0.000000	0.000000	0.000000
